<?xml version="1.0" encoding="UTF-8" standalone="no"?><!DOCTYPE svg PUBLIC "-//W3C//DTD SVG 1.1//EN" "http://www.w3.org/Graphics/SVG/1.1/DTD/svg11.dtd"><svg width="100%" height="100%" viewBox="0 0 1125 450" version="1.1" xmlns="http://www.w3.org/2000/svg" xmlns:xlink="http://www.w3.org/1999/xlink" xml:space="preserve" xmlns:serif="http://www.serif.com/" style="fill-rule:evenodd;clip-rule:evenodd;stroke-linejoin:round;stroke-miterlimit:2;"><g id="Group_210"><g id="Group_208"><g id="Group_207"><path id="Path_81" d="M125.604,63.817c30.417,-0 46.871,9.32 46.871,9.32c0.371,7.798 -2.625,15.391 -8.221,20.834c-11.346,-4.086 -23.303,-6.218 -35.362,-6.304c-31.8,-0 -54,16.72 -54,77.85c-0,61.129 22.2,76.75 54,76.75c12.96,0.017 25.835,-2.114 38.1,-6.305c5.493,5.757 8.542,13.427 8.5,21.384c-0.043,7.957 -17.821,9.321 -49.888,9.321c-52.358,-0 -79.771,-34.542 -79.771,-101.425c0,-66.325 27.138,-101.425 79.771,-101.425Z" style="fill-rule:nonzero;"/><path id="Path_82" d="M223.454,200.329c2.192,32.617 15.35,43.034 38.1,43.034c11.281,0.139 22.414,-2.596 32.346,-7.946c5.421,5.155 8.578,12.259 8.771,19.737c0.193,7.479 -15.625,11.513 -45.504,11.513c-42.213,-0 -61.95,-26.042 -61.95,-75.659c-0,-51.808 24.395,-74.012 60.858,-74.012c33.712,-0 54.271,18.641 54.271,55.096c0.146,9.5 -0.866,18.982 -3.013,28.237l-83.879,0Zm32.621,-61.666c-17.821,-0 -30.417,11.783 -32.621,42.212l58.659,0c0.544,-4.09 0.823,-8.211 0.833,-12.337c-0.013,-16.184 -6.6,-29.884 -26.871,-29.884l-0,0.009Z" style="fill-rule:nonzero;"/><path id="Path_83" d="M441.346,58.333c4.557,-0.203 9.112,0.449 13.429,1.921l-0,201.75c-3.693,1.317 -7.592,1.966 -11.512,1.917c-4.185,-0.013 -8.343,-0.659 -12.334,-1.917l-1.921,-14.804c-7.945,12.083 -20.558,19.467 -41.116,19.467c-31.25,-0 -51.534,-18.917 -51.534,-74.838c0,-55.921 20.284,-74.833 51.534,-74.833c19.187,-0 31.525,6.579 39.475,17.816l-0,-74.558c4.509,-1.461 9.242,-2.112 13.979,-1.921Zm-43.863,81.142c-21.925,0 -32.891,11.513 -32.891,52.354c-0,40.842 10.966,52.354 32.891,52.354c19.192,0 29.884,-16.17 29.884,-35.083l-0,-35.362c-0.259,-18.367 -10.95,-34.263 -29.867,-34.263l-0.017,0Z" style="fill-rule:nonzero;"/><path id="Path_84" d="M544.679,116.996c39.746,-0 52.354,17.816 52.354,53.179l0,91.829c-3.34,1.541 -7.02,2.201 -10.687,1.917c-3.747,0.099 -7.476,-0.553 -10.967,-1.917l-4.112,-17.546c-7.125,14.53 -22.205,22.209 -43.038,22.209c-25.767,-0 -42.5,-15.079 -42.5,-45.779c0,-29.88 18.367,-43.038 52.634,-43.038c10.438,-0.002 20.87,0.555 31.25,1.667l-0,-10.184c-0,-18.641 -7.126,-29.333 -28.234,-29.333c-12.537,0.252 -24.948,2.568 -36.733,6.854c-2.733,-2.192 -4.896,-5.012 -6.304,-8.221c-1.496,-3.642 -2.06,-7.601 -1.642,-11.516c15.117,-6.667 31.458,-10.114 47.979,-10.121Zm-2.741,79.496c-18.367,-0 -27.963,7.125 -27.963,24.396c0,17.816 9.046,24.67 23.85,24.67c21.667,0 31.796,-18.366 31.796,-37.829l-0,-9.583c-6.292,-0.558 -17.254,-1.654 -27.671,-1.654l-0.012,-0Z" style="fill-rule:nonzero;"/><path id="Path_85" d="M696.813,117.25c8.449,-0.102 16.745,2.284 23.85,6.858c-0.462,9.068 -4.883,17.491 -12.084,23.021c-4.869,-3.75 -10.85,-5.775 -16.996,-5.754c-10.687,-0 -21.104,8.225 -28.233,20.833l-0,99.779c-4.419,1.445 -9.059,2.094 -13.704,1.917c-4.651,0.261 -9.308,-0.391 -13.709,-1.917l0,-140.333c4.401,-1.526 9.058,-2.177 13.709,-1.917c4.645,-0.176 9.285,0.473 13.704,1.917l-0,18.917c10.437,-17.271 22.5,-23.321 33.462,-23.321Z" style="fill-rule:nonzero;"/></g></g><rect id="Rectangle_1" x="763.679" y="57.71" width="259.059" height="121.424" style="fill:#438635;"/><g id="Group_3"><path id="Path_8" d="M831.559,73.392c0.797,1.904 1.222,3.943 1.251,6.006c0.033,2.352 -0.392,4.689 -1.251,6.879l-35.639,0l0,25.282l29.389,0c0.784,1.993 1.206,4.109 1.247,6.25c0.021,2.269 -0.402,4.52 -1.247,6.626l-29.389,0l0,26.138l36.89,0c0.785,1.992 1.209,4.109 1.25,6.25c0.022,2.269 -0.403,4.521 -1.25,6.626l-52.897,0l-0,-90.039l51.646,-0.018Z" style="fill:#fff;fill-rule:nonzero;"/><path id="Path_9" d="M881.266,73.392c22.759,0 37.014,12.633 37.014,45.024c0,32.392 -14.255,45.015 -37.014,45.015l-29.389,0l0,-90.039l29.389,0Zm-1.126,76.786c12.126,0 21.006,-5.375 21.006,-31.762c0,-26.515 -8.871,-31.762 -21.006,-31.762l-12.255,0l-0,63.524l12.255,0Z" style="fill:#fff;fill-rule:nonzero;"/><path id="Path_10" d="M966.861,73.392c3.289,-0.071 6.572,0.308 9.758,1.127l29.886,87.786c-2.833,0.865 -5.792,1.246 -8.751,1.126c-2.635,0.144 -5.273,-0.239 -7.758,-1.126l-6.75,-20.008l-34.153,-0l-6.751,20.008c-2.497,0.83 -5.122,1.212 -7.753,1.126c-2.507,0.084 -5.008,-0.298 -7.376,-1.126l29.886,-87.786c3.197,-0.767 6.475,-1.145 9.762,-1.127Zm-0.887,16.757c-0.982,4.695 -2.234,9.328 -3.748,13.879l-8.755,25.384l25.383,-0l-8.502,-25.384c-1.552,-4.55 -2.846,-9.183 -3.877,-13.879l-0.501,0Z" style="fill:#fff;fill-rule:nonzero;"/></g></g></svg>